<?xml version="1.0" encoding="UTF-8"?><svg id="Livello_2" xmlns="http://www.w3.org/2000/svg" xmlns:xlink="http://www.w3.org/1999/xlink" viewBox="0 0 1756.25 1363.08"><defs><linearGradient id="Sfumatura_senza_nome_217" x1="869.34" y1="945.62" x2="869.34" y2="0" gradientUnits="userSpaceOnUse"><stop offset="0" stop-color="#1b45ff"/><stop offset=".06" stop-color="#1f50ff"/><stop offset=".17" stop-color="#255fff"/><stop offset=".3" stop-color="#2868ff"/><stop offset=".49" stop-color="#2a6bff"/><stop offset=".74" stop-color="#2a6dff"/><stop offset=".87" stop-color="#2e75ff"/><stop offset=".97" stop-color="#3482ff"/><stop offset="1" stop-color="#3789ff"/></linearGradient><linearGradient id="Sfumatura_senza_nome_178" x1="869.34" y1="936.17" x2="869.34" y2="9.46" gradientUnits="userSpaceOnUse"><stop offset=".49" stop-color="#2a6bff"/><stop offset=".64" stop-color="#2c6cff"/><stop offset=".71" stop-color="#3471ff"/><stop offset=".77" stop-color="#417bff"/><stop offset=".82" stop-color="#5488ff"/><stop offset=".86" stop-color="#6d99ff"/><stop offset=".9" stop-color="#8baeff"/><stop offset=".94" stop-color="#afc7ff"/><stop offset=".97" stop-color="#d8e4ff"/><stop offset="1" stop-color="#fff"/></linearGradient><linearGradient id="Sfumatura_senza_nome_49" x1="869.34" y1="580.69" x2="869.34" y2="344.7" gradientUnits="userSpaceOnUse"><stop offset="0" stop-color="#f28300"/><stop offset=".02" stop-color="#f28600"/><stop offset=".13" stop-color="#f39400"/><stop offset=".26" stop-color="#f39d00"/><stop offset=".47" stop-color="#f4a000"/><stop offset=".71" stop-color="#f4a200"/><stop offset=".85" stop-color="#f5ab00"/><stop offset=".97" stop-color="#f6b900"/><stop offset="1" stop-color="#f7be00"/></linearGradient><linearGradient id="Sfumatura_senza_nome_248" x1="869.34" y1="575.97" x2="869.34" y2="349.44" gradientUnits="userSpaceOnUse"><stop offset=".6" stop-color="#f4a000"/><stop offset="1" stop-color="#fff"/></linearGradient></defs><g id="Livello_1-2"><path d="M1066.55,603.15c24.75-37.37,39.2-82.16,39.2-130.34,0-130.56-105.84-236.41-236.41-236.41s-236.41,105.84-236.41,236.41,105.84,236.41,236.41,236.41c48.18,0,92.97-14.45,130.34-39.2,26.53-17.57,49.3-40.34,66.87-66.87ZM1186.46,723.06l-96.11-96.11c-18.19,26.03-40.84,48.68-66.87,66.87l96.11,96.11c18.46,18.46,48.4,18.46,66.86,0,18.46-18.46,18.46-48.4,0-66.87Z" style="fill:#fff;"/><path d="M0,1358.1l68.43-249.47h74.48l68.43,249.47h-44.19l-14.97-57.02H59.16l-14.97,57.02H0ZM69.14,1261.87h73.06l-33.5-126.52h-6.06l-33.5,126.52Z" style="fill:#2a6bff;"/><path d="M317.18,1363.08c-22.81,0-41.58-4.99-56.31-14.97-14.73-9.98-23.64-24.59-26.73-43.84l37.78-9.62c1.66,9.03,4.63,16.16,8.91,21.38,4.28,5.23,9.56,8.91,15.86,11.05,6.29,2.14,13.12,3.21,20.49,3.21,11.17,0,19.54-2.02,25.12-6.06,5.58-4.04,8.38-9.14,8.38-15.33s-2.67-11.17-8.02-14.25c-5.35-3.08-13.49-5.7-24.41-7.84l-11.05-1.78c-12.12-2.37-23.17-5.64-33.14-9.8-9.98-4.15-18-9.86-24.06-17.11-6.06-7.24-9.09-16.45-9.09-27.62,0-17.11,6.35-30.29,19.07-39.56,12.71-9.27,29.4-13.9,50.07-13.9s36,4.4,48.83,13.19c12.83,8.79,21.14,20.55,24.95,35.28l-37.78,11.4c-1.9-9.98-6.06-17.04-12.47-21.21-6.42-4.15-14.26-6.24-23.52-6.24s-16.81,1.67-21.92,4.99c-5.11,3.33-7.66,8.08-7.66,14.26s2.61,10.81,7.84,13.9c5.22,3.09,12.23,5.35,21.03,6.77l11.05,2.14c13.06,2.38,24.89,5.47,35.46,9.27,10.57,3.8,18.94,9.27,25.12,16.39,6.18,7.13,9.27,16.75,9.27,28.87,0,18.3-6.59,32.38-19.78,42.23-13.19,9.86-30.95,14.79-53.28,14.79Z" style="fill:#2a6bff;"/><path d="M495.02,1358.1c-11.4,0-20.49-3.39-27.26-10.16s-10.16-15.98-10.16-27.62v-104.42h-45.97v-33.86h45.97v-56.67h40.98v56.67h50.61v33.86h-50.61v97.65c0,7.13,3.32,10.69,9.98,10.69h35.28v33.86h-48.82Z" style="fill:#2a6bff;"/><path d="M590.88,1358.1v-176.05h40.27v20.31h6.06c2.61-7.36,7-12.71,13.19-16.04,6.18-3.32,13.54-4.99,22.1-4.99h21.38v36.35h-22.1c-11.88,0-21.51,3.15-28.87,9.44-7.37,6.3-11.05,15.98-11.05,29.04v101.93h-40.98Z" style="fill:#2a6bff;"/><path d="M807.21,1363.08c-17.59,0-33.32-3.62-47.22-10.87-13.9-7.24-24.83-17.58-32.79-31-7.96-13.42-11.94-29.52-11.94-48.29v-5.7c0-18.77,3.98-34.93,11.94-48.47,7.96-13.54,18.89-23.88,32.79-31,13.9-7.13,29.64-10.69,47.22-10.69s33.26,3.56,47.04,10.69c13.78,7.13,24.65,17.46,32.61,31,7.96,13.54,11.94,29.7,11.94,48.47v5.7c0,18.77-3.98,34.87-11.94,48.29-7.96,13.43-18.83,23.76-32.61,31-13.78,7.25-29.46,10.87-47.04,10.87ZM807.21,1326.73c14.97,0,27.2-4.81,36.71-14.43,9.5-9.62,14.26-23.1,14.26-40.45v-3.56c0-17.34-4.76-30.83-14.26-40.45-9.51-9.62-21.74-14.43-36.71-14.43s-27.21,4.81-36.71,14.43c-9.51,9.62-14.26,23.11-14.26,40.45v3.56c0,17.35,4.75,30.83,14.26,40.45,9.5,9.62,21.74,14.43,36.71,14.43Z" style="fill:#2a6bff;"/><path d="M1024.6,1363.08c-17.11,0-32.55-3.56-46.33-10.69-13.78-7.13-24.65-17.46-32.61-31.01-7.96-13.54-11.94-29.81-11.94-48.83v-4.99c0-19,3.98-35.28,11.94-48.83,7.96-13.54,18.83-23.88,32.61-31,13.78-7.13,29.22-10.69,46.33-10.69s31.3,2.97,43.3,8.91c11.99,5.94,21.68,14.08,29.05,24.41,7.36,10.34,12.12,21.92,14.25,34.75l-39.56,8.2c-.95-7.36-3.21-14.08-6.77-20.14-3.56-6.06-8.61-10.87-15.15-14.43-6.54-3.56-14.56-5.35-24.06-5.35s-18.48,2.08-26.19,6.24c-7.72,4.16-13.78,10.4-18.18,18.71-4.4,8.32-6.59,18.3-6.59,29.94v3.56c0,11.64,2.19,21.56,6.59,29.76,4.39,8.2,10.45,14.43,18.18,18.71,7.72,4.28,16.45,6.42,26.19,6.42,14.49,0,25.48-3.74,32.97-11.23,7.48-7.48,12.17-17.16,14.08-29.05l39.56,9.27c-2.85,12.36-7.96,23.64-15.32,33.86-7.37,10.22-17.05,18.35-29.05,24.41-12,6.06-26.43,9.09-43.3,9.09Z" style="fill:#2a6bff;"/><path d="M1235.58,1363.08c-17.59,0-33.32-3.62-47.22-10.87-13.9-7.24-24.83-17.58-32.79-31-7.96-13.42-11.94-29.52-11.94-48.29v-5.7c0-18.77,3.98-34.93,11.94-48.47,7.96-13.54,18.89-23.88,32.79-31,13.9-7.13,29.64-10.69,47.22-10.69s33.26,3.56,47.04,10.69c13.78,7.13,24.65,17.46,32.61,31,7.96,13.54,11.94,29.7,11.94,48.47v5.7c0,18.77-3.98,34.87-11.94,48.29-7.96,13.43-18.83,23.76-32.61,31-13.78,7.25-29.46,10.87-47.04,10.87ZM1235.58,1326.73c14.97,0,27.2-4.81,36.71-14.43,9.5-9.62,14.26-23.1,14.26-40.45v-3.56c0-17.34-4.76-30.83-14.26-40.45-9.5-9.62-21.74-14.43-36.71-14.43s-27.21,4.81-36.71,14.43c-9.51,9.62-14.26,23.11-14.26,40.45v3.56c0,17.35,4.75,30.83,14.26,40.45,9.5,9.62,21.74,14.43,36.71,14.43Z" style="fill:#2a6bff;"/><path d="M1454.04,1363.08c-17.59,0-33.32-3.62-47.22-10.87-13.9-7.24-24.83-17.58-32.79-31-7.96-13.42-11.94-29.52-11.94-48.29v-5.7c0-18.77,3.98-34.93,11.94-48.47,7.96-13.54,18.89-23.88,32.79-31,13.9-7.13,29.64-10.69,47.22-10.69s33.26,3.56,47.04,10.69c13.78,7.13,24.65,17.46,32.61,31,7.96,13.54,11.94,29.7,11.94,48.47v5.7c0,18.77-3.98,34.87-11.94,48.29-7.96,13.43-18.83,23.76-32.61,31-13.78,7.25-29.46,10.87-47.04,10.87ZM1454.04,1326.73c14.97,0,27.2-4.81,36.71-14.43,9.5-9.62,14.26-23.1,14.26-40.45v-3.56c0-17.34-4.76-30.83-14.26-40.45-9.5-9.62-21.74-14.43-36.71-14.43s-27.21,4.81-36.71,14.43c-9.51,9.62-14.26,23.11-14.26,40.45v3.56c0,17.35,4.75,30.83,14.26,40.45,9.5,9.62,21.74,14.43,36.71,14.43Z" style="fill:#2a6bff;"/><path d="M1589.11,1358.1v-249.47h40.98v140.06h6.06l63.44-66.64h53.81l-85.18,85.18,88.03,90.88h-53.1l-67-71.63h-6.06v71.63h-40.98Z" style="fill:#2a6bff;"/><path d="M1266.93,75.23C1191.7,0,1076.52,0,869.34,0s-322.36,0-397.59,75.23c-75.23,75.23-75.23,190.4-75.23,397.59s0,322.36,75.23,397.59,190.4,75.23,397.59,75.23,322.36,0,397.59-75.23c75.22-75.23,75.22-190.4,75.22-397.59s0-322.36-75.22-397.59ZM869.34,709.22c-130.56,0-236.41-105.84-236.41-236.41s105.84-236.41,236.41-236.41,236.41,105.84,236.41,236.41c0,48.18-14.45,92.97-39.2,130.34-17.57,26.53-40.34,49.3-66.87,66.87-37.37,24.75-82.16,39.2-130.34,39.2ZM1186.46,789.93c-18.46,18.46-48.4,18.47-66.86,0l-96.11-96.11c26.03-18.19,48.68-40.84,66.87-66.87l96.11,96.11c18.46,18.46,18.46,48.4,0,66.87ZM1153.03,732.86c-13.06,0-23.64,10.58-23.64,23.64s10.59,23.64,23.64,23.64,23.64-10.59,23.64-23.64-10.58-23.64-23.64-23.64Z" style="fill:url(#Sfumatura_senza_nome_217);"/><g style="opacity:.1;"><path d="M1260.24,81.91C1187.79,9.46,1074.67,9.46,869.34,9.46s-318.45,0-390.9,72.45c-72.45,72.46-72.45,185.57-72.45,390.9s0,318.45,72.45,390.9c72.45,72.45,185.57,72.45,390.9,72.45s318.45,0,390.9-72.45c72.45-72.45,72.45-185.57,72.45-390.9s0-318.44-72.45-390.9ZM869.34,718.67c-135.57,0-245.86-110.29-245.86-245.86s110.29-245.86,245.86-245.86,245.86,110.29,245.86,245.86c0,48.43-14.1,95.3-40.77,135.56-18.37,27.74-41.76,51.13-69.53,69.54-40.26,26.67-87.15,40.76-135.56,40.76ZM1193.14,796.62c-10.71,10.71-24.96,16.61-40.12,16.61s-29.4-5.9-40.12-16.61l-96.11-96.1c-1.98-1.98-2.98-4.73-2.73-7.52.24-2.78,1.71-5.32,4-6.92,25.22-17.62,46.93-39.33,64.54-64.54,1.6-2.29,4.14-3.76,6.92-4,.28-.03.55-.04.83-.04,2.49,0,4.9.99,6.69,2.77l96.1,96.1c22.13,22.13,22.13,58.11,0,80.24Z" style="fill:url(#Sfumatura_senza_nome_178);"/></g><path d="M861.94,562.49l-47.53,16.9c-14.62,5.2-29.89-5.9-29.47-21.41l1.39-50.43c.14-5.08-1.47-10.05-4.57-14.07l-30.76-39.98c-9.46-12.29-3.62-30.25,11.25-34.64l48.39-14.26c4.87-1.44,9.1-4.51,11.97-8.7l28.52-41.61c8.77-12.8,27.65-12.8,36.42,0l28.52,41.61c2.87,4.19,7.1,7.26,11.97,8.7l48.39,14.26c14.88,4.39,20.71,22.34,11.25,34.64l-30.76,39.98c-3.1,4.02-4.71,8.99-4.57,14.07l1.39,50.43c.43,15.51-14.85,26.61-29.47,21.41l-47.53-16.9c-4.78-1.7-10.01-1.7-14.79,0Z" style="fill:url(#Sfumatura_senza_nome_49);"/><g style="opacity:.1;"><path d="M975.08,423.41l-48.39-14.27c-5.88-1.73-11.04-5.48-14.53-10.55l-28.52-41.62c-3.29-4.79-8.5-7.54-14.3-7.54h0c-5.81,0-11.03,2.74-14.31,7.54l-28.52,41.61c-3.48,5.08-8.64,8.83-14.54,10.56l-48.38,14.27c-5.58,1.64-9.8,5.75-11.6,11.28-1.79,5.53-.79,11.34,2.75,15.95l30.77,39.98c3.75,4.88,5.72,10.94,5.55,17.08l-1.39,50.42c-.16,5.81,2.45,11.1,7.15,14.52s10.54,4.26,16.01,2.32l47.53-16.91c2.89-1.03,5.94-1.55,8.98-1.55s6.09.52,8.98,1.55l47.54,16.91c5.44,1.93,11.28,1.1,16.01-2.32,4.69-3.42,7.3-8.71,7.14-14.52l-1.39-50.42c-.18-6.14,1.79-12.21,5.55-17.09l30.76-39.97c3.55-4.61,4.54-10.42,2.75-15.95-1.8-5.52-6.02-9.63-11.6-11.28Z" style="fill:url(#Sfumatura_senza_nome_248);"/><path d="M983.93,450.63l-30.76,39.97c-3.76,4.89-5.73,10.95-5.55,17.09l1.39,50.42c.16,5.81-2.45,11.1-7.14,14.52-4.73,3.42-10.57,4.25-16.01,2.32l-47.54-16.91c-2.89-1.03-5.94-1.55-8.98-1.55s-6.09.52-8.98,1.55l-47.53,16.91c-5.48,1.94-11.31,1.1-16.01-2.32s-7.3-8.71-7.15-14.52l1.39-50.42c.17-6.14-1.8-12.21-5.55-17.08l-30.77-39.98c-3.55-4.61-4.54-10.42-2.75-15.95,1.8-5.52,6.02-9.63,11.6-11.28l48.38-14.27c5.89-1.73,11.05-5.48,14.54-10.56l28.52-41.61c3.29-4.79,8.51-7.54,14.31-7.54h0c5.81,0,11.02,2.74,14.3,7.54l28.52,41.62c3.48,5.07,8.64,8.82,14.53,10.55l48.39,14.27c5.58,1.64,9.8,5.75,11.6,11.28,1.79,5.53.79,11.34-2.75,15.95Z" style="fill:url(#Sfumatura_senza_nome_248);"/></g></g></svg>