<?xml version="1.0" encoding="UTF-8"?><svg id="Livello_2" xmlns="http://www.w3.org/2000/svg" xmlns:xlink="http://www.w3.org/1999/xlink" viewBox="0 0 1500 1500"><defs><linearGradient id="Sfumatura_senza_nome_217" x1="750" y1="1500" x2="750" y2="0" gradientUnits="userSpaceOnUse"><stop offset="0" stop-color="#1b45ff"/><stop offset=".06" stop-color="#1f50ff"/><stop offset=".17" stop-color="#255fff"/><stop offset=".3" stop-color="#2868ff"/><stop offset=".49" stop-color="#2a6bff"/><stop offset=".74" stop-color="#2a6dff"/><stop offset=".87" stop-color="#2e75ff"/><stop offset=".97" stop-color="#3482ff"/><stop offset="1" stop-color="#3789ff"/></linearGradient><linearGradient id="Sfumatura_senza_nome_178" x1="750" y1="1485" x2="750" y2="15" gradientUnits="userSpaceOnUse"><stop offset=".49" stop-color="#2a6bff"/><stop offset=".64" stop-color="#2c6cff"/><stop offset=".71" stop-color="#3471ff"/><stop offset=".77" stop-color="#417bff"/><stop offset=".82" stop-color="#5488ff"/><stop offset=".86" stop-color="#6d99ff"/><stop offset=".9" stop-color="#8baeff"/><stop offset=".94" stop-color="#afc7ff"/><stop offset=".97" stop-color="#d8e4ff"/><stop offset="1" stop-color="#fff"/></linearGradient><linearGradient id="Sfumatura_senza_nome_49" x1="750" y1="921.12" x2="750" y2="546.79" gradientUnits="userSpaceOnUse"><stop offset="0" stop-color="#f28300"/><stop offset=".02" stop-color="#f28600"/><stop offset=".13" stop-color="#f39400"/><stop offset=".26" stop-color="#f39d00"/><stop offset=".47" stop-color="#f4a000"/><stop offset=".71" stop-color="#f4a200"/><stop offset=".85" stop-color="#f5ab00"/><stop offset=".97" stop-color="#f6b900"/><stop offset="1" stop-color="#f7be00"/></linearGradient><linearGradient id="Sfumatura_senza_nome_248" x1="750" y1="913.64" x2="750" y2="554.3" gradientUnits="userSpaceOnUse"><stop offset=".6" stop-color="#f4a000"/><stop offset="1" stop-color="#fff"/></linearGradient><linearGradient id="Sfumatura_senza_nome_248-2" x1="750" x2="750" xlink:href="#Sfumatura_senza_nome_248"/></defs><g id="Livello_1-2"><path d="M1062.82,956.76c39.26-59.28,62.18-130.33,62.18-206.76,0-207.11-167.89-375-375-375s-375,167.89-375,375,167.89,375,375,375c76.43,0,147.48-22.92,206.76-62.18,42.08-27.87,78.2-63.98,106.07-106.07ZM1253.03,1146.97l-152.45-152.45c-28.85,41.28-64.78,77.22-106.07,106.07l152.45,152.45c29.29,29.29,76.78,29.29,106.06,0,29.29-29.29,29.29-76.78,0-106.07Z" style="fill:#fff;"/><path d="M1200,1162.5c-20.71,0-37.5,16.79-37.5,37.5s16.79,37.5,37.5,37.5,37.5-16.79,37.5-37.5-16.79-37.5-37.5-37.5ZM1380.67,119.33C1261.34,0,1078.65,0,750,0S238.66,0,119.33,119.33C0,238.66,0,421.35,0,750S0,1261.34,119.33,1380.67c119.33,119.33,302.03,119.33,630.67,119.33s511.34,0,630.67-119.33c119.33-119.33,119.33-302.03,119.33-630.67s0-511.34-119.33-630.67ZM750,1125c-207.11,0-375-167.89-375-375s167.89-375,375-375,375,167.89,375,375c0,76.43-22.92,147.48-62.18,206.76-27.87,42.08-63.98,78.2-106.07,106.07-59.28,39.26-130.33,62.18-206.76,62.18ZM1253.03,1253.03c-29.29,29.29-76.78,29.29-106.06,0l-152.45-152.45c41.28-28.85,77.22-64.78,106.07-106.07l152.45,152.45c29.29,29.29,29.29,76.78,0,106.07Z" style="fill:url(#Sfumatura_senza_nome_217);"/><g style="opacity:.1;"><path d="M1370.07,129.93C1255.14,15,1075.71,15,750,15s-505.14,0-620.07,114.93C15,244.88,15,424.29,15,750s0,505.14,114.93,620.07c114.93,114.93,294.36,114.93,620.07,114.93s505.14,0,620.07-114.93c114.93-114.93,114.93-294.36,114.93-620.07s0-505.12-114.93-620.07ZM750,1140c-215.05,0-390-174.95-390-390s174.95-390,390-390,390,174.95,390,390c0,76.82-22.37,151.17-64.67,215.04-29.14,44-66.24,81.11-110.29,110.3-63.87,42.3-138.24,64.66-215.04,64.66ZM1263.63,1263.65c-16.99,16.99-39.59,26.35-63.63,26.35s-46.64-9.36-63.63-26.35l-152.46-152.45c-3.13-3.13-4.73-7.5-4.34-11.92.38-4.41,2.71-8.44,6.34-10.97,40-27.95,74.44-62.39,102.38-102.38,2.53-3.63,6.56-5.96,10.97-6.34.44-.04.88-.06,1.32-.06,3.96,0,7.78,1.57,10.61,4.39l152.45,152.45c35.1,35.1,35.1,92.18,0,127.28Z" style="fill:url(#Sfumatura_senza_nome_178);"/></g><path d="M738.27,892.26l-75.39,26.81c-23.18,8.24-47.42-9.36-46.74-33.96l2.2-79.99c.22-8.05-2.34-15.93-7.25-22.32l-48.8-63.42c-15-19.5-5.75-47.99,17.85-54.95l76.75-22.63c7.73-2.28,14.43-7.15,18.98-13.79l45.24-66.01c13.91-20.3,43.86-20.3,57.77,0l45.24,66.01c4.55,6.64,11.26,11.52,18.98,13.79l76.75,22.63c23.6,6.96,32.86,35.44,17.85,54.95l-48.8,63.42c-4.91,6.38-7.47,14.27-7.25,22.32l2.2,79.99c.68,24.6-23.56,42.2-46.74,33.96l-75.39-26.81c-7.59-2.7-15.88-2.7-23.47,0Z" style="fill:url(#Sfumatura_senza_nome_49);"/><g style="opacity:.1;"><path d="M917.74,671.63l-76.76-22.63c-9.33-2.74-17.52-8.69-23.04-16.73l-45.23-66.02c-5.21-7.6-13.48-11.95-22.69-11.95h-.01c-9.21,0-17.49,4.35-22.71,11.95l-45.23,66.01c-5.52,8.06-13.71,14-23.06,16.74l-76.74,22.63c-8.85,2.61-15.54,9.13-18.4,17.89-2.84,8.77-1.26,17.99,4.37,25.3l48.81,63.41c5.95,7.73,9.07,17.36,8.8,27.1l-2.21,79.98c-.25,9.21,3.88,17.61,11.34,23.03s16.71,6.75,25.4,3.68l75.4-26.82c4.58-1.64,9.42-2.46,14.24-2.46s9.65.82,14.24,2.46l75.41,26.82c8.63,3.06,17.9,1.74,25.4-3.68,7.44-5.42,11.57-13.81,11.32-23.03l-2.2-79.98c-.28-9.74,2.84-19.37,8.8-27.11l48.79-63.4c5.63-7.31,7.21-16.52,4.37-25.3-2.86-8.76-9.55-15.28-18.4-17.89Z" style="fill:url(#Sfumatura_senza_nome_248);"/><path d="M931.77,714.81l-48.79,63.4c-5.96,7.75-9.08,17.37-8.8,27.11l2.2,79.98c.25,9.21-3.88,17.61-11.32,23.03-7.5,5.42-16.77,6.74-25.4,3.68l-75.41-26.82c-4.58-1.64-9.42-2.46-14.24-2.46s-9.65.82-14.24,2.46l-75.4,26.82c-8.69,3.08-17.94,1.74-25.4-3.68s-11.59-13.81-11.34-23.03l2.21-79.98c.26-9.74-2.86-19.37-8.8-27.1l-48.81-63.41c-5.63-7.31-7.21-16.52-4.37-25.3,2.86-8.76,9.55-15.28,18.4-17.89l76.74-22.63c9.35-2.74,17.53-8.69,23.06-16.74l45.23-66.01c5.21-7.6,13.49-11.95,22.71-11.95h.01c9.21,0,17.48,4.35,22.69,11.95l45.23,66.02c5.52,8.04,13.71,13.99,23.04,16.73l76.76,22.63c8.85,2.61,15.54,9.13,18.4,17.89,2.84,8.77,1.26,17.99-4.37,25.3Z" style="fill:url(#Sfumatura_senza_nome_248-2);"/></g></g></svg>