<?xml version="1.0" encoding="UTF-8"?><svg id="Livello_2" xmlns="http://www.w3.org/2000/svg" viewBox="0 0 1500 1500"><g id="Livello_1-2"><path d="M1062.82,956.76c39.26-59.28,62.18-130.33,62.18-206.76,0-207.11-167.89-375-375-375s-375,167.89-375,375,167.89,375,375,375c76.43,0,147.48-22.92,206.76-62.18,42.08-27.87,78.2-63.98,106.07-106.07ZM1253.03,1146.97l-152.45-152.45c-28.85,41.28-64.78,77.22-106.07,106.07l152.45,152.45c29.29,29.29,76.78,29.29,106.06,0,29.29-29.29,29.29-76.78,0-106.07Z" style="fill:#fff;"/><path d="M1380.67,119.33C1261.34,0,1078.65,0,750,0S238.66,0,119.33,119.33C0,238.66,0,421.35,0,750s0,511.34,119.33,630.67,302.03,119.33,630.67,119.33,511.34,0,630.67-119.33c119.33-119.33,119.33-302.03,119.33-630.67s0-511.34-119.33-630.67ZM750,1125c-207.11,0-375-167.89-375-375s167.89-375,375-375,375,167.89,375,375c0,76.43-22.92,147.47-62.18,206.76-27.87,42.08-63.98,78.2-106.07,106.07-59.28,39.26-130.33,62.18-206.76,62.18ZM1253.03,1253.03c-29.29,29.29-76.78,29.29-106.06,0l-152.45-152.45c41.28-28.85,77.22-64.78,106.07-106.07l152.45,152.45c29.29,29.29,29.29,76.78,0,106.07Z"/><circle cx="1200" cy="1200" r="37.5"/><path d="M738.27,892.26l-75.39,26.81c-23.18,8.24-47.42-9.36-46.74-33.96l2.2-79.99c.22-8.05-2.34-15.93-7.25-22.32l-48.8-63.42c-15-19.5-5.75-47.99,17.85-54.95l76.75-22.63c7.73-2.28,14.43-7.15,18.98-13.79l45.24-66.01c13.91-20.3,43.86-20.3,57.77,0l45.24,66.01c4.55,6.64,11.26,11.52,18.98,13.79l76.75,22.63c23.6,6.96,32.86,35.44,17.85,54.95l-48.8,63.42c-4.91,6.38-7.47,14.27-7.25,22.32l2.2,79.99c.68,24.6-23.56,42.2-46.74,33.96l-75.39-26.81c-7.59-2.7-15.88-2.7-23.47,0Z"/></g></svg>